inDegrees=no
num_controls=7
num_derivatives=13
num_iterations=131
num_multipliers=7
num_parameters=0
num_slacks=7
num_states=26
objective=4.382112
objective_accelerations=0.235695
objective_balance=0.023806
objective_effort=0.326693
objective_height=3.722449
objective_ligament=0.073468
solver_duration=1213.733079
status=Solve_Succeeded
success=true
DataType=double
version=3
OpenSimVersion=4.4-2022-07-23-0e9fedc
endheader
time	/jointset/ground_pelvis/pelvis_tilt/value	/jointset/ground_pelvis/pelvis_tx/value	/jointset/ground_pelvis/pelvis_ty/value	/jointset/hip_l/hip_flexion_l/value	/jointset/hip_l/hip_adduction_l/value	/jointset/hip_l/hip_rotation_l/value	/jointset/back/lumbar_extension/value	/jointset/patellofemoral_l/patellar_flexion_l/value	/jointset/knee_l/knee_flexion_l/value	/jointset/knee_l/knee_adduction_l/value	/jointset/knee_l/knee_rotation_l/value	/jointset/ankle_l/ankle_angle_l/value	/jointset/subtalar_l/subtalar_angle_l/value	/jointset/ground_pelvis/pelvis_tilt/speed	/jointset/ground_pelvis/pelvis_tx/speed	/jointset/ground_pelvis/pelvis_ty/speed	/jointset/hip_l/hip_flexion_l/speed	/jointset/hip_l/hip_adduction_l/speed	/jointset/hip_l/hip_rotation_l/speed	/jointset/back/lumbar_extension/speed	/jointset/patellofemoral_l/patellar_flexion_l/speed	/jointset/knee_l/knee_flexion_l/speed	/jointset/knee_l/knee_adduction_l/speed	/jointset/knee_l/knee_rotation_l/speed	/jointset/ankle_l/ankle_angle_l/speed	/jointset/subtalar_l/subtalar_angle_l/speed	/forceset/tau_hip_flexion_l	/forceset/tau_hip_adduction_l	/forceset/tau_hip_rotation_l	/forceset/tau_knee_flexion_l	/forceset/tau_ankle_angle_l	/forceset/tau_subtalar_angle_l	/forceset/tau_lumbar_extension	lambda_cid13_p0	lambda_cid13_p1	lambda_cid13_p2	lambda_cid13_p3	lambda_cid13_p4	lambda_cid13_p5	lambda_cid14_p0	/jointset/ground_pelvis/pelvis_tilt/accel	/jointset/ground_pelvis/pelvis_tx/accel	/jointset/ground_pelvis/pelvis_ty/accel	/jointset/hip_l/hip_flexion_l/accel	/jointset/hip_l/hip_adduction_l/accel	/jointset/hip_l/hip_rotation_l/accel	/jointset/back/lumbar_extension/accel	/jointset/patellofemoral_l/patellar_flexion_l/accel	/jointset/knee_l/knee_flexion_l/accel	/jointset/knee_l/knee_adduction_l/accel	/jointset/knee_l/knee_rotation_l/accel	/jointset/ankle_l/ankle_angle_l/accel	/jointset/subtalar_l/subtalar_angle_l/accel	gamma_cid13_p0	gamma_cid13_p1	gamma_cid13_p2	gamma_cid13_p3	gamma_cid13_p4	gamma_cid13_p5	gamma_cid14_p0
0	-0.03682271758768214	0.05667758364805307	0.9203415899367337	0.3085811930696054	-0.2956404740979588	-0.301607222731306	-0.3879500408040475	0.2499276582271115	0.249927658227084	-0.1745329251994329	-0.1745329191440547	-0.0008036543073733089	0.0004376051815134714	0	0	0	0	0	0	0	0	0	0	0	0	0	0.04415022000801837	-0.03910129040648107	-0.02069374930037803	-0.2502662651965801	0.2363552034593667	-0.01946290931846047	0.03809125713388541	31.57323371772899	0.5871006189627991	2.121961617294434	-18.54850284391621	-646.8846368309179	-70.1874526951038	-23.19703850564684	0.7795258516188442	-0.8880382974718131	-0.4905067467219083	4.633065610417184	-0.6186947777976967	2.574770099887504	-6.115397738006136	7.40923424715139	7.4092342471529	1.11147169498973	-0.04699760252001387	2.486368982380311	0.1871105562347832	-3.487322157660455e-09	1.035455903836171e-07	2.499676453386051e-08	4.936324267612265e-09	4.068762981218087e-08	1.621665860479716e-09	6.544776223278779e-09
0.01	-0.03678186677638826	0.05663390863844737	0.9203177024969436	0.3088054496555228	-0.2956715896380516	-0.3014778829485277	-0.3882536980993913	0.2502907611157044	0.2502907611157081	-0.1744803780922529	-0.1745325394531569	-0.0006817117509966601	0.0004459442168931702	0.008180161885644485	-0.008673313762402889	-0.004756040972495703	0.04456696163637101	-0.006208624839517353	0.02574514996559135	-0.06033006575977484	0.07229796829469101	0.07229796829469674	0.01042780456827713	6.516473331604993e-05	0.02431041256731537	0.00165705855947208	0.03851011660283258	-0.05436000465621445	-0.01963246587781678	-0.2439436733656456	0.222445279544959	-0.0004043036748567425	0.04296024147813704	27.72842670656996	-6.919395566570119	3.207381343328409	-17.41693452723813	-648.9324337265168	-85.59844490120318	-23.20118143419723	0.8387574692031412	-0.8477237070881158	-0.4649275871956733	4.325854858626483	-0.6197952524988987	2.555968256508155	-5.93160199686533	7.091685397910449	7.091685397910318	0.996016097386044	0.03165797944186314	2.391664504516417	0.1533719868544241	-2.133398352959924e-08	9.59689917922563e-08	8.032469354301232e-08	1.941779760326398e-08	-1.977282344750776e-08	-4.282718799343398e-08	1.531260777156992e-10
0.02	-0.03665891512383877	0.05650535133292246	0.9202468996844938	0.3094668445414593	-0.2957643612096293	-0.3010947755037667	-0.3891486142527169	0.2513671651427401	0.2513671651427434	-0.1743260301145221	-0.1745318312211895	-0.0003190076468256246	0.0004705275340776717	0.01642016825806105	-0.01697645918384171	-0.009383074531940195	0.08742766000792113	-0.01233120629782939	0.05075353239571621	-0.1182517715954933	0.1426602276806857	0.1426602276806895	0.02035885952213092	6.570819400631789e-05	0.0481523095589866	0.003248856360980076	0.03287001319767829	-0.06961871890600077	-0.01857118245552911	-0.2376210815346291	0.2085353556305627	0.01865430196870036	0.04782922582240581	23.94038940281198	-14.4367106663668	4.295530196543693	-16.44651025939785	-650.1824048911564	-100.9383805502617	-23.21341280886346	0.7914947489742666	-0.814004629279906	-0.4647052641116757	4.291812957453143	-0.6014861015565385	2.427416592794216	-5.633725753194264	7.022092465412282	7.022092465412243	1.012121772105295	-0.05992185704519742	2.392665867250495	0.1740584046417214	-3.918064490153803e-08	8.839239320089551e-08	1.356526225521641e-07	3.389927093891569e-08	-8.023327670719639e-08	-8.727604184734767e-08	-6.238524067847381e-09
0.03	-0.03645381184685632	0.05629573928329963	0.9201303401970845	0.3105489295800246	-0.2959176309783375	-0.3004654812106147	-0.3906108722560093	0.2531376070672677	0.2531376070672528	-0.1740743880363864	-0.1745315002513116	0.0002799437471825843	0.0005110665143952007	0.02456825796748554	-0.02487124244357978	-0.01391800868068145	0.1287420313589039	-0.01828541446468132	0.07498856201699945	-0.1738285184381874	0.2110989819745452	0.2110989819745476	0.02991305733231402	1.132099639723636e-05	0.07157144968188164	0.004875282302857664	0.02904823782973821	-0.06124935225624099	-0.01819355262575632	-0.2348936272931354	0.207495348873227	0.01308405898883679	0.05151867183294496	23.32624166430192	-11.99255629051723	4.00013984669567	-16.37785244308498	-651.6585847246482	-95.29796712781899	-23.23330890249686	0.8216280661853702	-0.7660020938285594	-0.4462816408392329	4.014146067587653	-0.5868232718384421	2.404015635673125	-5.463952554387907	6.70539189783148	6.705391897831294	0.9186244443097874	0.02344816673890351	2.306560308161317	0.159356600522446	-5.454896403178008e-08	5.967027353574505e-08	1.84014863005761e-07	4.430945117509411e-08	-1.354185043363073e-07	-1.308560175439102e-07	-1.40202468733126e-08
0.04	-0.03616819527595855	0.05600942201717549	0.9199687525380722	0.3120367377008145	-0.2961293298482308	-0.2995973427234719	-0.3926177584086486	0.2555825615320185	0.2555825615320191	-0.1737288928483822	-0.1745313840898385	0.001111090987089337	0.000568354136443717	0.03252282704738865	-0.03231750248410527	-0.01838870885253837	0.1685722764565509	-0.0240170265350917	0.0985223711933933	-0.2271774014639815	0.2775627357267549	0.2775627357267582	0.03912948149590548	2.274651309728137e-05	0.0945914787388601	0.006598584707202429	0.02522646246183183	-0.05287998560648468	-0.01781592279590093	-0.2321661730516205	0.2064553421159064	0.00751381600897376	0.05520811784349961	22.7659053732108	-9.554306247884687	3.701672940985363	-16.46508224312675	-652.3864890680109	-89.58168892227887	-23.2602823712314	0.7527906230709588	-0.7242999854382599	-0.4518584687348165	3.994987706786124	-0.5569668822681249	2.287172503816401	-5.188152989813677	6.627092357082462	6.627092357082867	0.9445670427872034	-0.04675931418333479	2.312843654066228	0.1934336971349317	-6.986618332198716e-08	3.051216374536178e-08	2.322334810149136e-07	5.463568722365452e-08	-1.904949644266434e-07	-1.744180782269191e-07	-2.183063097073458e-08
0.05	-0.03580391391899458	0.05565074949625474	0.9197626782107842	0.3139156130871432	-0.296397212808662	-0.2984979279866688	-0.3951468313131224	0.2586824888783921	0.2586824888783847	-0.1732929174384032	-0.1745313972599774	0.00217030824003994	0.0006433352189351301	0.04032187364567656	-0.03935566313544664	-0.02282245520837641	0.2069544840965378	-0.02951518488274305	0.1212346374975203	-0.278263043804348	0.3420962639848736	0.342096263984882	0.04801166711181286	-1.91823132164273e-05	0.1171695446526522	0.00841560364500344	0.01997725933732027	-0.05194315234366289	-0.01703419438098436	-0.227512545812854	0.1993437016910311	0.01047008910872994	0.05987065589839483	20.55224744265091	-10.48418083302013	3.888254601381552	-15.63976564204767	-653.4261911703209	-90.90575258638057	-23.29361574772212	0.7917234468746349	-0.6843623120499026	-0.4386160535904351	3.722582803356745	-0.5396231538496589	2.244329388263213	-5.01264951052868	6.317517055243441	6.317517055243973	0.8519851708938596	0.01805872471717561	2.21792175446351	0.1785005322295067	-7.93550061898615e-08	1.193590962600563e-08	2.59853747869107e-07	6.241234613980276e-08	-2.304491010854965e-07	-1.994690545467124e-07	-2.60985638758387e-08
0.06	-0.03536198974234561	0.05522353772740486	0.9195123697530226	0.316170859652004	-0.2967187539211347	-0.2971751754479116	-0.3981755365718805	0.2624179583063634	0.2624179583063656	-0.1727697320022804	-0.1745316360400557	0.003452832891013095	0.0007370193988297739	0.04805139099076748	-0.04602535206993566	-0.02723553494724903	0.2438465121665951	-0.03474865694383426	0.1431899315837432	-0.3271038723198062	0.404671152045669	0.4046711520456824	0.0565714867237822	-2.237547662636296e-05	0.1392529583435452	0.01033920418787629	0.01472805621284063	-0.05100631908085432	-0.01625246596606651	-0.2228589185740564	0.1922320612661676	0.01342636220847657	0.06453319395330469	18.3877521051874	-11.42311469865247	4.076796230928199	-14.9660567770649	-653.7849500754235	-92.16955261432616	-23.332508016161	0.7388847724324846	-0.6506056420686231	-0.4477251453417411	3.69695179280031	-0.5040296249559898	2.135778060235681	-4.739190224831455	6.235364317617909	6.235364317618326	0.8800938419998297	-0.03901218160251619	2.213913209485489	0.2147500181490889	-8.859842289258498e-08	-6.194792675623052e-09	2.866067157273021e-07	7.008165443984942e-08	-2.697665083367081e-07	-2.237406167880545e-07	-3.021734094126627e-08
0.07000000000000001	-0.03484339584244484	0.05473146899699879	0.9192179255290206	0.3187880634643567	-0.2970913215772515	-0.2956368582261293	-0.4016815368166669	0.2667696796090273	0.2667696796090163	-0.1721625891285096	-0.1745319928682605	0.004953774365961232	0.0008504763018522887	0.05564229412214833	-0.05232647701783581	-0.03165734669183093	0.2793621964562873	-0.03972492086237782	0.1643506497110319	-0.3737480931195434	0.4653487023542968	0.4653487023543075	0.06478456990516898	-4.110096161381578e-05	0.1608488379287561	0.01236401960510915	0.01007720983610888	-0.04808626370098738	-0.01562625370756112	-0.2196245906506941	0.1873691244411671	0.01386405940691233	0.06881239904221464	16.82728236946447	-11.37960781928311	4.115124882457728	-14.453123480035	-654.4038734698444	-91.43257892832129	-23.37604116518638	0.7654274973977911	-0.6105642650749352	-0.4400691447200178	3.444061313518816	-0.4884735103416591	2.087745749644126	-4.57482547825915	5.935295561308257	5.93529556130759	0.7810679000913068	0.01792986006493728	2.119446837308849	0.198092225196809	-9.70532121680583e-08	-4.708273167620114e-08	3.152664129332696e-07	7.31937289278614e-08	-3.009473431724054e-07	-2.546976899883042e-07	-3.708707623715651e-08
0.08	-0.03424964602847863	0.05417824934832685	0.9188791311964328	0.3217534610328806	-0.2975124616195592	-0.2938906284109377	-0.405643536763598	0.2717184454495391	0.2717184454495358	-0.1714754849541434	-0.1745322904329177	0.00666807893761452	0.0009845303433842845	0.0630825738099285	-0.05825553572311008	-0.0361055566643619	0.3134852634045843	-0.04446313418244346	0.1847724502650666	-0.4183038127477287	0.5240800596158476	0.5240800596158537	0.07256374684189128	-1.052276612775516e-05	0.1819255776847562	0.01445863188979889	0.005426363459390214	-0.04516620832113539	-0.01500004144900969	-0.2163902627273238	0.1825061876161705	0.01430175660533347	0.07309160413113375	15.31207755186563	-11.3428464207226	4.153181144530344	-14.08326333757202	-654.4007802269493	-90.63800964847714	-23.42323842752521	0.7087600837132358	-0.5761923935442458	-0.4530047909315659	3.418428324521376	-0.4564195052603015	1.987994545584987	-4.321489990520543	5.846125708202618	5.846125708202639	0.7933125930671573	-0.02915144550773788	2.110085243642462	0.2287093916402674	-1.054571222546768e-07	-8.943887949606624e-08	3.440491249358676e-07	7.601178833122598e-08	-3.316032378522629e-07	-2.860860864762252e-07	-4.413429270920563e-08
